<?xml version="1.0" encoding="utf-8"?>
<!-- Generator: Adobe Illustrator 21.0.2, SVG Export Plug-In . SVG Version: 6.00 Build 0)  -->
<svg version="1.2" baseProfile="tiny" id="Layer_1" xmlns="http://www.w3.org/2000/svg" xmlns:xlink="http://www.w3.org/1999/xlink"
	 x="0px" y="0px" viewBox="0 0 300 300" xml:space="preserve">
<path fill="none" d="M162.7,164.2c0-0.9-0.7-1.6-1.6-1.6c-0.9,0-1.6,0.7-1.6,1.6v3.2c0,0.9,0.7,1.6,1.6,1.6c0.9,0,1.6-0.7,1.6-1.6
	V164.2z M162.7,164.2"/>
<path fill="none" d="M161.1,181.7c-0.9,0-1.6,0.7-1.6,1.6v6.3c0,0.9,0.7,1.6,1.6,1.6c0.9,0,1.6-0.7,1.6-1.6v-6.3
	C162.7,182.4,162,181.7,161.1,181.7L161.1,181.7z M161.1,181.7"/>
<path fill="none" d="M169,145.2c0-0.9-0.7-1.6-1.6-1.6c-0.9,0-1.6,0.7-1.6,1.6v3.2c0,0.9,0.7,1.6,1.6,1.6c0.9,0,1.6-0.7,1.6-1.6
	V145.2z M169,145.2"/>
<path fill="none" d="M162.7,154.7c0-0.9-0.7-1.6-1.6-1.6c-0.9,0-1.6,0.7-1.6,1.6v3.2c0,0.9,0.7,1.6,1.6,1.6c0.9,0,1.6-0.7,1.6-1.6
	V154.7z M162.7,154.7"/>
<path fill="none" d="M162.7,173.7c0-0.9-0.7-1.6-1.6-1.6c-0.9,0-1.6,0.7-1.6,1.6v3.2c0,0.9,0.7,1.6,1.6,1.6c0.9,0,1.6-0.7,1.6-1.6
	V173.7z M162.7,173.7"/>
<path fill="none" d="M169,154.7c0-0.9-0.7-1.6-1.6-1.6c-0.9,0-1.6,0.7-1.6,1.6v3.2c0,0.9,0.7,1.6,1.6,1.6c0.9,0,1.6-0.7,1.6-1.6
	V154.7z M169,154.7"/>
<path fill="none" d="M156.3,145.2c0-0.9-0.7-1.6-1.6-1.6c-0.9,0-1.6,0.7-1.6,1.6v3.2c0,0.9,0.7,1.6,1.6,1.6c0.9,0,1.6-0.7,1.6-1.6
	V145.2z M156.3,145.2"/>
<path fill="none" d="M162.7,145.2c0-0.9-0.7-1.6-1.6-1.6c-0.9,0-1.6,0.7-1.6,1.6v3.2c0,0.9,0.7,1.6,1.6,1.6c0.9,0,1.6-0.7,1.6-1.6
	V145.2z M162.7,145.2"/>
<path fill="none" d="M169,129.4v-3.2c0-0.9-0.7-1.6-1.6-1.6c-0.9,0-1.6,0.7-1.6,1.6v3.2c0,0.9,0.7,1.6,1.6,1.6
	C168.3,131,169,130.3,169,129.4L169,129.4z M169,129.4"/>
<path fill="none" d="M156.3,154.7c0-0.9-0.7-1.6-1.6-1.6c-0.9,0-1.6,0.7-1.6,1.6v3.2c0,0.9,0.7,1.6,1.6,1.6c0.9,0,1.6-0.7,1.6-1.6
	V154.7z M156.3,154.7"/>
<path fill="none" d="M175.3,126.2c0-0.9-0.7-1.6-1.6-1.6c-0.9,0-1.6,0.7-1.6,1.6v3.2c0,0.9,0.7,1.6,1.6,1.6c0.9,0,1.6-0.7,1.6-1.6
	V126.2z M175.3,126.2"/>
<path fill="none" d="M154.7,162.7c-0.9,0-1.6,0.7-1.6,1.6v3.2c0,0.9,0.7,1.6,1.6,1.6c0.9,0,1.6-0.7,1.6-1.6v-3.2
	C156.3,163.4,155.6,162.7,154.7,162.7L154.7,162.7z M154.7,162.7"/>
<path fill="none" d="M181.7,173.7c0-0.9-0.7-1.6-1.6-1.6c-0.9,0-1.6,0.7-1.6,1.6v3.2c0,0.9,0.7,1.6,1.6,1.6c0.9,0,1.6-0.7,1.6-1.6
	V173.7z M181.7,173.7"/>
<path fill="none" d="M180.1,181.7c-0.9,0-1.6,0.7-1.6,1.6v6.3c0,0.9,0.7,1.6,1.6,1.6c0.9,0,1.6-0.7,1.6-1.6v-6.3
	C181.7,182.4,181,181.7,180.1,181.7L180.1,181.7z M180.1,181.7"/>
<path fill="none" d="M186.4,162.7c-0.9,0-1.6,0.7-1.6,1.6v3.2c0,0.9,0.7,1.6,1.6,1.6c0.9,0,1.6-0.7,1.6-1.6v-3.2
	C188,163.4,187.3,162.7,186.4,162.7L186.4,162.7z M186.4,162.7"/>
<path fill="none" d="M161.1,131c0.9,0,1.6-0.7,1.6-1.6v-6.7l15.8-4v26.5c0,0.7,0.4,1.3,1,1.5l11.6,4.4v16.3c0,0.9,0.7,1.6,1.6,1.6
	c0.9,0,1.6-0.7,1.6-1.6V150c0-0.7-0.4-1.3-1-1.5l-11.6-4.4v-30.6c0-0.9-0.7-1.6-1.6-1.6c-0.9,0-1.6,0.7-1.6,1.6v1.9l-17.8,4.5
	c-0.7,0.2-1.2,0.8-1.2,1.5v7.9C159.5,130.3,160.2,131,161.1,131L161.1,131z M161.1,131"/>
<path fill="none" d="M188,154.7c0-0.9-0.7-1.6-1.6-1.6c-0.9,0-1.6,0.7-1.6,1.6v3.2c0,0.9,0.7,1.6,1.6,1.6c0.9,0,1.6-0.7,1.6-1.6
	V154.7z M188,154.7"/>
<path fill="none" d="M181.7,154.7c0-0.9-0.7-1.6-1.6-1.6c-0.9,0-1.6,0.7-1.6,1.6v3.2c0,0.9,0.7,1.6,1.6,1.6c0.9,0,1.6-0.7,1.6-1.6
	V154.7z M181.7,154.7"/>
<path fill="none" d="M169,173.7c0-0.9-0.7-1.6-1.6-1.6c-0.9,0-1.6,0.7-1.6,1.6v3.2c0,0.9,0.7,1.6,1.6,1.6c0.9,0,1.6-0.7,1.6-1.6
	V173.7z M169,173.7"/>
<path fill="none" d="M181.7,164.2c0-0.9-0.7-1.6-1.6-1.6c-0.9,0-1.6,0.7-1.6,1.6v3.2c0,0.9,0.7,1.6,1.6,1.6c0.9,0,1.6-0.7,1.6-1.6
	V164.2z M181.7,164.2"/>
<path fill="none" d="M167.4,181.7c-0.9,0-1.6,0.7-1.6,1.6v6.3c0,0.9,0.7,1.6,1.6,1.6c0.9,0,1.6-0.7,1.6-1.6v-6.3
	C169,182.4,168.3,181.7,167.4,181.7L167.4,181.7z M167.4,181.7"/>
<path fill="none" d="M169,164.2c0-0.9-0.7-1.6-1.6-1.6c-0.9,0-1.6,0.7-1.6,1.6v3.2c0,0.9,0.7,1.6,1.6,1.6c0.9,0,1.6-0.7,1.6-1.6
	V164.2z M169,164.2"/>
<path fill="none" d="M173.7,191.2c0.9,0,1.6-0.7,1.6-1.6v-50.7c0-0.7-0.5-1.4-1.2-1.5l-25.3-6.3c-0.5-0.1-1,0-1.4,0.3
	c-0.4,0.3-0.6,0.8-0.6,1.2v34.8c0,0.9,0.7,1.6,1.6,1.6c0.9,0,1.6-0.7,1.6-1.6v-32.8l22.2,5.5v49.4
	C172.2,190.5,172.9,191.2,173.7,191.2L173.7,191.2z M173.7,191.2"/>
<path fill="none" d="M137.3,135.7c0-0.9-0.7-1.6-1.6-1.6c-0.9,0-1.6,0.7-1.6,1.6v3.2c0,0.9,0.7,1.6,1.6,1.6c0.9,0,1.6-0.7,1.6-1.6
	V135.7z M137.3,135.7"/>
<path fill="none" d="M137.3,126.2c0-0.9-0.7-1.6-1.6-1.6c-0.9,0-1.6,0.7-1.6,1.6v3.2c0,0.9,0.7,1.6,1.6,1.6c0.9,0,1.6-0.7,1.6-1.6
	V126.2z M137.3,126.2"/>
<path fill="none" d="M124.7,173.7c0-0.9-0.7-1.6-1.6-1.6c-0.9,0-1.6,0.7-1.6,1.6v3.2c0,0.9,0.7,1.6,1.6,1.6c0.9,0,1.6-0.7,1.6-1.6
	V173.7z M124.7,173.7"/>
<path fill="none" d="M110.4,159.5c0.9,0,1.6-0.7,1.6-1.6V150h15.8v39.6c0,0.9,0.7,1.6,1.6,1.6c0.9,0,1.6-0.7,1.6-1.6v-41.2
	c0-0.9-0.7-1.6-1.6-1.6h-19c-0.9,0-1.6,0.7-1.6,1.6v9.5C108.8,158.8,109.5,159.5,110.4,159.5L110.4,159.5z M110.4,159.5"/>
<path fill="none" d="M127.8,135.7v3.2c0,0.9,0.7,1.6,1.6,1.6c0.9,0,1.6-0.7,1.6-1.6v-3.2c0-0.9-0.7-1.6-1.6-1.6
	C128.5,134.2,127.8,134.9,127.8,135.7L127.8,135.7z M127.8,135.7"/>
<path fill="none" d="M137.3,116.7c0-0.9-0.7-1.6-1.6-1.6c-0.9,0-1.6,0.7-1.6,1.6v3.2c0,0.9,0.7,1.6,1.6,1.6c0.9,0,1.6-0.7,1.6-1.6
	V116.7z M137.3,116.7"/>
<path fill="none" d="M123.1,181.7c-0.9,0-1.6,0.7-1.6,1.6v6.3c0,0.9,0.7,1.6,1.6,1.6c0.9,0,1.6-0.7,1.6-1.6v-6.3
	C124.7,182.4,124,181.7,123.1,181.7L123.1,181.7z M123.1,181.7"/>
<path fill="none" d="M195.9,194.3h-3.2v-9.7c2.7-0.7,4.8-3.2,4.8-6.1c0-3.5-2.8-6.3-6.3-6.3c-3.5,0-6.3,2.8-6.3,6.3
	c0,2.9,2,5.4,4.8,6.1v9.7H150v-6.5c3.6-0.7,6.3-3.9,6.3-7.8c0-4.4-3.6-7.9-7.9-7.9c-4.4,0-7.9,3.6-7.9,7.9c0,3.8,2.7,7,6.3,7.8v6.5
	H112v-16c3.6-0.7,6.3-3.9,6.3-7.8c0-4.4-3.6-7.9-7.9-7.9c-4.4,0-7.9,3.6-7.9,7.9c0,3.8,2.7,7,6.3,7.8v16h-4.7
	c-0.9,0-1.6,0.7-1.6,1.6c0,0.9,0.7,1.6,1.6,1.6h91.8c0.9,0,1.6-0.7,1.6-1.6C197.5,195,196.8,194.3,195.9,194.3L195.9,194.3z
	 M105.7,170.6c0-2.6,2.1-4.8,4.8-4.8c2.6,0,4.8,2.1,4.8,4.8c0,2.6-2.1,4.8-4.8,4.8C107.8,175.3,105.7,173.2,105.7,170.6L105.7,170.6
	z M143.7,180.1c0-2.6,2.1-4.8,4.8-4.8c2.6,0,4.7,2.1,4.7,4.8c0,2.6-2.1,4.8-4.7,4.8C145.8,184.8,143.7,182.7,143.7,180.1
	L143.7,180.1z M188,178.5c0-1.7,1.4-3.2,3.2-3.2s3.2,1.4,3.2,3.2c0,1.7-1.4,3.2-3.2,3.2S188,180.2,188,178.5L188,178.5z M188,178.5"
	/>
<path fill="none" d="M115.2,183.2v6.3c0,0.9,0.7,1.6,1.6,1.6c0.9,0,1.6-0.7,1.6-1.6v-6.3c0-0.9-0.7-1.6-1.6-1.6
	C115.9,181.7,115.2,182.4,115.2,183.2L115.2,183.2z M115.2,183.2"/>
<path fill="none" d="M124.7,154.7c0-0.9-0.7-1.6-1.6-1.6c-0.9,0-1.6,0.7-1.6,1.6v3.2c0,0.9,0.7,1.6,1.6,1.6c0.9,0,1.6-0.7,1.6-1.6
	V154.7z M124.7,154.7"/>
<path fill="none" d="M124.7,164.2c0-0.9-0.7-1.6-1.6-1.6c-0.9,0-1.6,0.7-1.6,1.6v3.2c0,0.9,0.7,1.6,1.6,1.6c0.9,0,1.6-0.7,1.6-1.6
	V164.2z M124.7,164.2"/>
<path fill="none" d="M115.2,154.7v3.2c0,0.9,0.7,1.6,1.6,1.6c0.9,0,1.6-0.7,1.6-1.6v-3.2c0-0.9-0.7-1.6-1.6-1.6
	C115.9,153.2,115.2,153.9,115.2,154.7L115.2,154.7z M115.2,154.7"/>
<path fill="none" d="M137.3,164.2c0-0.9-0.7-1.6-1.6-1.6c-0.9,0-1.6,0.7-1.6,1.6v3.2c0,0.9,0.7,1.6,1.6,1.6c0.9,0,1.6-0.7,1.6-1.6
	V164.2z M137.3,164.2"/>
<path fill="none" d="M143.7,145.2c0-0.9-0.7-1.6-1.6-1.6c-0.9,0-1.6,0.7-1.6,1.6v3.2c0,0.9,0.7,1.6,1.6,1.6c0.9,0,1.6-0.7,1.6-1.6
	V145.2z M143.7,145.2"/>
<path fill="none" d="M143.7,135.7c0-0.9-0.7-1.6-1.6-1.6c-0.9,0-1.6,0.7-1.6,1.6v3.2c0,0.9,0.7,1.6,1.6,1.6c0.9,0,1.6-0.7,1.6-1.6
	V135.7z M143.7,135.7"/>
<path fill="none" d="M143.7,154.7c0-0.9-0.7-1.6-1.6-1.6c-0.9,0-1.6,0.7-1.6,1.6v3.2c0,0.9,0.7,1.6,1.6,1.6c0.9,0,1.6-0.7,1.6-1.6
	V154.7z M143.7,154.7"/>
<path fill="none" d="M142.1,162.7c-0.9,0-1.6,0.7-1.6,1.6v3.2c0,0.9,0.7,1.6,1.6,1.6c0.9,0,1.6-0.7,1.6-1.6v-3.2
	C143.7,163.4,143,162.7,142.1,162.7L142.1,162.7z M142.1,162.7"/>
<path fill="none" d="M143.7,126.2c0-0.9-0.7-1.6-1.6-1.6c-0.9,0-1.6,0.7-1.6,1.6v3.2c0,0.9,0.7,1.6,1.6,1.6c0.9,0,1.6-0.7,1.6-1.6
	V126.2z M143.7,126.2"/>
<path fill="none" d="M137.3,173.7c0-0.9-0.7-1.6-1.6-1.6c-0.9,0-1.6,0.7-1.6,1.6v3.2c0,0.9,0.7,1.6,1.6,1.6c0.9,0,1.6-0.7,1.6-1.6
	V173.7z M137.3,173.7"/>
<path fill="none" d="M123.1,143.7c0.9,0,1.6-0.7,1.6-1.6v-11.7l5.5-2.7c0.5-0.3,0.9-0.8,0.9-1.4V113l7.9-4l7.9,4v13.3
	c0,0.9,0.7,1.6,1.6,1.6c0.9,0,1.6-0.7,1.6-1.6V112c0-0.6-0.3-1.1-0.9-1.4l-8.6-4.3v-2.2c0-0.9-0.7-1.6-1.6-1.6
	c-0.9,0-1.6,0.7-1.6,1.6v2.2l-8.6,4.3c-0.5,0.3-0.9,0.8-0.9,1.4v13.3l-5.5,2.7c-0.5,0.3-0.9,0.8-0.9,1.4v12.7
	C121.5,143,122.2,143.7,123.1,143.7L123.1,143.7z M123.1,143.7"/>
<path fill="none" d="M137.3,154.7c0-0.9-0.7-1.6-1.6-1.6c-0.9,0-1.6,0.7-1.6,1.6v3.2c0,0.9,0.7,1.6,1.6,1.6c0.9,0,1.6-0.7,1.6-1.6
	V154.7z M137.3,154.7"/>
<path fill="none" d="M135.7,181.7c-0.9,0-1.6,0.7-1.6,1.6v6.3c0,0.9,0.7,1.6,1.6,1.6c0.9,0,1.6-0.7,1.6-1.6v-6.3
	C137.3,182.4,136.6,181.7,135.7,181.7L135.7,181.7z M135.7,181.7"/>
<path fill="none" d="M143.7,116.7c0-0.9-0.7-1.6-1.6-1.6c-0.9,0-1.6,0.7-1.6,1.6v3.2c0,0.9,0.7,1.6,1.6,1.6c0.9,0,1.6-0.7,1.6-1.6
	V116.7z M143.7,116.7"/>
<path fill="none" d="M137.3,145.2c0-0.9-0.7-1.6-1.6-1.6c-0.9,0-1.6,0.7-1.6,1.6v3.2c0,0.9,0.7,1.6,1.6,1.6c0.9,0,1.6-0.7,1.6-1.6
	V145.2z M137.3,145.2"/>
</svg>
